<?xml version="1.0" encoding="UTF-8"?>
<svg id="Layer_1" xmlns="http://www.w3.org/2000/svg" version="1.1" viewBox="0 0 1920 2089">
  <!-- Generator: Adobe Illustrator 29.5.1, SVG Export Plug-In . SVG Version: 2.1.0 Build 141)  -->
  <defs>
    <style>
      .st0 {
        fill: #f15a24;
      }

      .st1 {
        fill: #f5835b;
      }

      .st2, .st3 {
        fill: #1b1464;
      }

      .st4 {
        fill: #e04f2e;
      }

      .st5 {
        fill: #402e13;
      }

      .st6, .st7 {
        fill: #414040;
      }

      .st8 {
        fill: #140f4b;
      }

      .st9 {
        fill: #b55a24;
      }

      .st10, .st11, .st12, .st7, .st3 {
        display: none;
      }

      .st10, .st13 {
        fill: #3f0000;
      }

      .st11, .st14 {
        fill: #3c1709;
      }

      .st12 {
        fill: #407f7f;
      }

      .st15 {
        fill: #b32d12;
      }

      .st16 {
        fill: #eb5823;
      }

      .st17 {
        fill: #fff;
      }

      .st18 {
        fill: #3a2c11;
      }

      .st19 {
        fill: #ed5823;
      }

      .st20 {
        fill: #943923;
      }

      .st21 {
        fill: #b62e12;
      }

      .st22 {
        fill: #451a0a;
      }

      .st23 {
        fill: #ec5823;
      }

      .st24 {
        fill: #ee5924;
      }

      .st25 {
        fill: #3c2d12;
      }

      .st26 {
        fill: #ed5923;
      }

      .st27 {
        fill: #ef5924;
      }

      .st28 {
        fill: #3f1463;
      }

      .st29 {
        fill: #b2421a;
      }

      .st30 {
        fill: #b42d12;
      }

      .st31 {
        fill: #ea5823;
      }
    </style>
  </defs>
  <path class="st17" d="M1921.58,867.64v727.39H1.17V496.73h1920.41v370.91M528.31,533.41s-.44.1-1.44-.03c-14.54,0-29.07-.02-43.61-.02-143.44,0-286.87,0-430.31,0-2.05,0-4.09,0-6.33,0-.09,1.46-.19,2.3-.19,3.14.01,53.24.04,106.48-.14,160.3.07.19.13.39.14,1.55,0,285.72,0,571.44,0,857.16,0,1.57.11,3.14.4,5.55,1.73.12,3.47.34,5.2.34,295.94.02,591.89.02,887.83,0,4.19,0,8.38-.26,13.55-.42,5.94,0,11.89,0,18.8.28,4.2.05,8.41.15,12.61.15,299.23,0,598.46,0,897.69,0,1.58,0,3.16.06,4.72-.09.5-.05.94-.72,1.57-2.04,0-99.84.01-199.67.01-299.51,0-1.05-.07-2.1.15-4.09-.08-3.89-.16-7.77-.12-12.48-.09-1.1-.18-2.2-.05-4.3,0-64.93.02-129.86.02-194.79,0-1.05-.11-2.09.02-3.99-.05-1.45-.09-2.9.04-5.31-.06-4.93-.11-9.86-.06-15.76,0-160.12,0-320.24,0-480.36,0-1.4-.09-2.8.06-4.72-.29-.14-.58-.28-1.82-.61-.53,0-1.05-.01-1.58-.01-450.67,0-901.35,0-1352.02,0-1.57,0-3.14.12-5.14.05Z"/>
  <path class="st0" d="M1565.2,1545.58c-3.17.04-6.34.08-10.31-.27-6.26-.45-11.73-.51-17.2-.57-20.68-.34-41.02-3.38-61.2-7.67-35.02-7.43-67.97-20.18-98.59-38.78-17.23-10.47-33.57-22.2-48.19-36.14-10.24-9.76-20.15-19.88-30.24-29.87,60.67-236.03,121.2-471.48,181.78-707.17,14.31-2.82,28.64-4.65,43.99-5.69,3.37-.08,5.82-.12,8.76-.11,2.35.07,4.22.22,6.06.07,2.45-.2,4.87-.63,7.31-.96,0,0-.07-.09.42-.09,7.19-.01,13.9-.02,20.61-.03,0,0-.02.11.28.44,5.06.4,9.82.46,15.03.58,2.91.02,5.37-.02,7.82-.05,24.56,1.9,48.87,5.31,72.76,11.55,38.21,9.97,73.28,26.32,104.26,50.99,21.49,17.11,39.54,37.46,55.25,59.93,25.16,35.98,41.93,75.69,52.45,118.16,5.21,21.03,8.94,42.33,11.22,64.69.57,4.25.89,7.72,1.2,11.19.05,1.45.09,2.9-.42,4.77-4.93.53-9.31.64-14.17.68-3.43.23-6.37.53-9.77.91-3.19.13-5.93.17-9.15.14-3.43.23-6.37.53-9.77.91-3.19.13-5.93.17-9.15.14-3.43.23-6.37.53-9.77.91-3.19.13-5.93.17-9.15.14-3.43.23-6.37.53-9.77.91-3.19.13-5.93.17-9.15.14-3.43.23-6.37.53-9.77.91-3.19.13-5.93.17-9.15.14-3.43.23-6.37.53-9.77.91-3.19.13-5.93.17-9.15.14-3.43.23-6.37.53-9.77.91-3.19.13-5.93.17-9.15.14-3.43.23-6.37.53-9.77.91-3.19.13-5.93.17-9.15.14-3.43.23-6.37.53-9.77.91-3.19.13-5.93.17-9.15.14-3.43.23-6.37.53-9.77.91-3.19.13-5.93.17-9.15.15-3.43.2-6.38.47-9.79.84-3.28.1-6.11.09-9.08,0-.15-.08-.49-.08-.6-.55.13-20.76-1.37-40.89-5.62-60.78-5.29-24.75-14.98-47.09-33.85-64.87-15.14-14.26-32.54-23.21-53.66-25.57-5.06-.46-9.82-1.53-14.89.46-1.14.1-1.84.06-2.54.14-26.46,3.12-46.76,16.33-61.91,37.92-10.97,15.64-18.06,33.07-23.54,51.24-5.31,17.6-8.81,35.6-11.08,53.78-1.77,14.18-2.46,28.49-3.85,42.9-.25.49-.29.82-.41,1.64-.19,8.49-.31,16.49-.65,24.64-.25.49-.29.82-.41,1.64-.02,14.15.04,27.82.04,41.75.03.63.25.89.58,1.53.34,10.06.39,19.67,1.1,29.23,1.17,15.8,2.4,31.6,4.29,47.33,2.25,18.73,6.22,37.14,12.64,54.94,6.83,18.91,17.34,35.39,32.79,48.43,14.43,12.19,31.08,19.14,50.38,20.59,5.74.4,11.14.56,16.54.56,1.14,0,2.29-.6,3.89-.9,7.47-1.29,14.67-1.95,21.44-4.02,25.92-7.89,42.95-25.92,54.42-49.68,9.65-19.99,14.6-41.36,17.28-63.3.59-4.83,1.29-9.64,2.41-14.48,2.96-.07,5.46-.13,8.4-.08,2.87.14,5.29.17,8.04.49,2.99.35,5.66.41,8.78.56,2.87.13,5.29.16,8.04.49,2.99.35,5.66.41,8.78.56,2.87.13,5.29.16,8.04.49,2.99.35,5.66.41,8.78.56,3.19.16,5.92.21,8.99.56,3.03.35,5.72.41,8.86.55,2.84.13,5.23.17,7.96.5,3.03.35,5.72.41,8.86.55,2.84.13,5.23.17,7.96.5,3.03.35,5.72.41,8.86.55,2.84.13,5.23.17,7.96.51,3.03.32,5.73.35,8.87.48,2.87.14,5.29.17,8.04.49,2.99.35,5.66.41,8.78.56,2.87.13,5.29.16,8.04.49,2.99.35,5.66.41,8.78.56,2.87.13,5.29.16,8.05.48,3.34.38,6.35.46,9.81.63,2.84.13,5.23.17,7.96.5,3.03.35,5.72.41,8.86.55,2.84.13,5.23.17,7.96.5,3.03.35,5.72.41,8.83.55,2.09.1,3.77.12,5.44.13.09,1.1.18,2.2,0,4.05-.63,3.64-.98,6.53-1.33,9.42-4.98,39.58-14.58,77.9-31.08,114.35-11.99,26.47-27.35,50.74-46.47,72.67-18.19,20.86-39.22,38.39-62.26,53.54-28.91,19.01-60.37,32.34-93.84,40.84-17.44,4.43-35.15,7.57-53.13,8.92-5.39.41-10.79.71-17.17,1-5.24-.06-9.5-.15-13.76-.04-1.45.04-2.88.61-4.32.93Z"/>
  <path class="st0" d="M528.07,534.51c-.07,2.1-.2,4.19-.2,6.29-.02,51.5-.03,103-.62,154.99-45.21.5-89.84.48-134.47.55-1.97,0-3.94.68-5.92,1.04-.07,10.14-.15,20.29-.47,30.86-.24.43-.64.33-.75.2-.46-.27-.73-.15-1.39.28-64.47.07-128.45.09-192.43.09-.87,0-1.74-.09-2.73-.33-.32-.42-.57-.57-.87-.65-.07-9.75-.15-19.5-.43-30.11-2.27-1.05-4.32-1.4-6.38-1.4-44.69-.04-89.38-.04-134.28-.06-.21,0-.64-.04-.64-.04-.02-53.24-.05-106.48-.06-159.72,0-.84.1-1.69.19-3.14,2.24,0,4.29,0,6.33,0,143.44,0,286.87,0,430.31,0,14.54,0,29.07.01,44.11.35.5.32.69.8.69.8Z"/>
  <path class="st24" d="M965.48,1507.87c-.1,2.1-.2,4.2-.36,7.15-.07,2.36-.07,3.86-.07,5.36.27.05.53.09.8.14.39-1.79.79-3.59,1.18-5.38,2.2-8.45,4.02-17.01,6.67-25.31,4.88-15.25,13.49-28.3,24.55-39.83,16.29-17,35.66-29.76,56.16-40.93,25.71-14,53.1-24.2,80.27-34.85.32-.12.69-.11,1.07-.17,1.44,1.06,1.51,2.26.1,3.34-.96.73-2.12,1.22-3.2,1.79-21.02,11.12-42.33,21.74-61.9,35.37-15.98,11.13-31.08,23.29-43.35,38.57-8.96,11.15-15.86,23.44-19.58,37.36-.31,1.16-.49,2.35-.18,3.79.57-.83,1.26-1.6,1.68-2.5,9.7-20.71,25.54-35.31,45.89-45.01,14.04-6.7,28.45-12.62,42.76-18.75,12.07-5.17,23.91-10.74,35.3-17.32,14.21-8.2,22.44-20.16,24.59-37.23.32-2.37.34-3.99.36-5.6-.02-4.44-.04-8.89,0-14.24-.14-3.18-.34-5.46-.55-7.74-1.58-15.57-3.57-31.07-8.09-46.13-7.34-24.47-19.36-46.41-35.61-66.08-5.01-6.06-9.98-12.16-14.92-18.28-.59-.73-.94-1.66-.72-3.26,2.32,1.63,4.8,3.08,6.94,4.93,15.57,13.45,27.54,29.73,37.08,47.85,10.61,20.14,17.47,41.55,20.97,64.01.77,4.94,1.02,9.96,1.43,15.82.17,2.76.4,4.65.64,6.53.03,4.54.06,9.07-.18,14.43-.23,2.46-.18,4.11-.14,5.76-3.87,46.9-21.97,87.74-53.08,122.76-23.24,26.16-51.66,44.93-84.77,56.31-13.56,4.66-27.53,7.89-42.66,9.45-4.96.55-9.15.79-13.34,1.04-5.94,0-11.89,0-18.7-.19-5.21-.29-9.54-.41-13.88-.53-5.26-.97-10.53-1.9-15.79-2.9-40.24-7.64-75.06-25.64-104.32-54.4-31.31-30.77-50.05-68.14-58.17-110.98-1.62-8.52-1.8-17.32-2.61-26.72-.04-1.09-.23-1.36-.55-1.53-.05-4.21-.11-8.42.1-13.28.48-.95.53-1.28.43-1.63.29-25.54,6.47-49.72,17.12-72.8,9.62-20.84,22.75-39.25,39.39-55.09,3.52-3.35,7.27-6.46,10.92-9.68.27.25.55.5.82.74-3.64,4.13-7.46,8.11-10.88,12.42-3.58,4.5-6.91,9.23-10.12,14.01-3.2,4.78-6.1,9.76-8.94,14.33,1.42,1.37,2.8,2.38,3.77,3.69,3.01,4.07,5.7,8.38,8.83,12.36,3.74,4.76,8.49,8.27,15.13,10.28,3.46.11,6.21-.1,8.97-.32,8.12-1.7,13.86-7.04,19.27-12.79,3.8-4.04,7.37-8.3,11.53-13.02,1.28,3.95.55,7.11-.77,9.97-3.71,8.05-8.88,15.12-16.23,20.15-9.17,6.29-13.33,14.79-13.15,25.76.15,8.9.03,17.8.03,27.78,1.99-1.34,3.34-2.21,4.65-3.15,6.82-4.88,13.63-9.78,22.89-11.7,3.37-.11,5.88-.16,8.39-.22,7.21,1.36,12.14,5.75,15.87,11.82,2.75,4.48,5.58,9.02,10.14,11.82,3.36,2.06,7.18,3.38,11.53,5.34,5.48.41,10.23.51,14.97.62-4.25,4.99-10.24,6.17-16.21,7.12-6.59,1.05-12.83-.7-18.91-3.08-2.24-.88-4.43-1.88-6.86-2.92-2.29,4.57-4.46,8.91-6.89,13.76-9.36-3.95-19.07-6.64-28.21-11.92,2.76-5.52,5.36-10.73,7.96-15.94-.22-.3-.45-.6-.67-.9-6.33,2.25-12.7,4.42-18.97,6.82-.95.36-1.65,1.7-2.19,2.73-.72,1.36-1.17,2.87-1.84,4.6-4.07-1.77-5.3-5.18-5.81-8.74-.47-3.27-.19-6.64-.39-9.95-.11-1.8-.51-3.58-.89-6.08-6.9,5.78-13.13,10.99-19.34,16.19-3.12-2.95-2.79-5.94-1.29-8.93.77-1.55,1.8-3.02,2.91-4.35,6.77-8.07,9.51-17.75,11.29-27.82.94-5.31-.69-10.1-3.36-14.51-5.71-9.42-11.61-18.73-17.47-28.06-.44-.7-1.12-1.26-2.13-2.37-1.2,1.6-2.39,2.82-3.17,4.26-11.59,21.4-19.52,44.08-22.78,68.22-1.8,13.33-2.46,26.78-.59,40.22.38,2.76.4,5.57.67,8.36,1.05,11.01,7.44,19.01,15.08,26.18,8.66,8.13,19.02,13.66,29.8,18.33,16.83,7.29,33.87,14.12,50.68,21.46,14.86,6.49,28.55,14.88,39.66,26.92,3.28,3.55,6.22,7.42,9.75,11.67-.38-1.82-.42-3.24-.96-4.42-5.59-12.17-12.94-23.15-21.93-33.09-12.94-14.31-28.63-25.07-45.01-34.89-19.33-11.59-38.83-22.9-58.83-34.67,2,.18,3.7.21,5.36.5,14.76,2.57,28.6,7.98,42.06,14.28,26.87,12.58,52.07,27.94,75.24,46.52,9.02,7.23,17.4,15.15,25.13,23.77,2.12,2.36,2.52,4.52,1.72,7.55-2.55,9.61-5,19.27-5.56,29.92-.35.91-.39,1.22-.27,1.54-.09,3.5-.19,7-.26,11.23.23,1,.45,1.27.66,1.53.09,1.53.18,3.05.27,4.58.33.03.65.05.98.08.64-4.69,1.3-9.37,1.93-14.06,3.74-28.09,15.7-52.32,34.54-73.29,19.78-22.02,43.66-38.56,69.93-51.84,31.16-15.74,63.8-27.53,97.56-36.28,1.01-.26,2.02-.52,3.05-.68.5-.08,1.03.08,2.26.21-1.27,1.01-2.03,1.8-2.95,2.32-16.99,9.72-34.03,19.36-50.99,29.13-17.72,10.2-35.7,20.01-52.97,30.93-23.92,15.12-43.14,34.94-55.64,60.67-6.39,13.15-10.52,26.97-11.31,42.33-.35.92-.39,1.22-.27,1.55Z"/>
  <path class="st10" d="M1887.81,534.49c-1.23-.03-2.45-.08-3.68-.08-451.48,0-902.95,0-1354.91-.2-.48-.2-.49-.66-.49-.66,1.57-.07,3.14-.19,4.71-.19,450.67,0,901.35,0,1352.02,0,.53,0,1.05,0,2.01.34.43.33.33.79.33.79Z"/>
  <path class="st12" d="M971.73,1561.14c3.71-.38,7.9-.62,12.55-.86,3.96.04,7.46.09,10.97.09,295.39,0,590.79,0,886.18,0,2.1,0,4.2-.07,6.76-.13,0,.37-.44,1.03-.95,1.09-1.56.16-3.15.09-4.72.09-299.23,0-598.46,0-897.69,0-4.2,0-8.41-.1-13.09-.28Z"/>
  <path class="st12" d="M938.17,1560.29c4.82.11,9.16.23,13.88.53-3.8.32-7.99.59-12.18.59-295.94.02-591.89.02-887.83,0-1.73,0-3.47-.22-5.32-.76,2.16-.37,4.43-.28,6.71-.28,291.78,0,583.55,0,875.33,0,2.98,0,5.95-.05,9.42-.08Z"/>
  <path class="st6" d="M1888.78,1035.3c-.4-2.99-.72-6.46-.99-10.39.15-1.75.25-3.05.63-4.62.34,4.66.39,9.59.36,15.01Z"/>
  <path class="st6" d="M1887.39,1253.64c.2-3.16.55-6.06,1.12-9.28.3,3.55.37,7.44.32,11.8-.51-.43-.9-1.34-1.44-2.52Z"/>
  <path class="st11" d="M528.52,533.49c.21.07.22.53.23.76,0,.23-.34.28-.51.27s-.36-.49-.36-.74.43-.36.64-.29Z"/>
  <path class="st7" d="M1888.02,534.54c-.22-.05-.12-.51-.07-.75.33-.09.63.05.82.45-.1.26-.53.35-.75.3Z"/>
  <path class="st1" d="M46.39,696.51c.1-.29.53-.26.69-.03s.21.68.21.68c0,0-.38.2-.59.22-.28-.18-.34-.37-.31-.86Z"/>
  <path class="st2" d="M668.49,757.29c4.22,17.82,8.44,35.64,12.66,53.47,4.74,20.03,9.49,40.06,14.23,60.09,7.11,30.05,14.23,60.09,21.3,90.14,5.51,23.43,10.9,46.89,16.42,70.32,6.05,25.64,12.22,51.24,18.27,76.88,4.08,17.32,8.03,34.67,12.05,52.01,2.01,8.66,4.04,17.32,6.09,25.98.19.8.55,1.55,1.71,2.38,1.52-6.45,3.06-12.9,4.56-19.36,6.22-26.85,12.45-53.69,18.63-80.54,5.17-22.44,10.26-44.89,15.42-67.33,6.8-29.57,13.64-59.14,20.43-88.72,5.07-22.1,10.04-44.22,15.13-66.31,7.17-31.1,14.44-62.18,21.61-93.28,2.98-12.92,5.86-25.85,8.65-38.81.5-2.3,1.5-3.41,3.83-3.34,1.05.03,2.1,0,3.15,0,58.69,0,117.38,0,176.07,0,1.73,0,3.46,0,5.79,0,38.62,152.94,76.08,305.92,115.51,458.75.82-3,1.73-5.98,2.45-9.01,6.23-26.31,12.47-52.62,18.62-78.95,4.21-18,8.5-35.99,12.35-54.07,2.35-11.06,3.91-22.3,5.87-33.44,3.38-19.3,9.02-38,14.67-56.73,4.12-13.68,7.3-27.65,10.66-41.55,6.63-27.47,13.11-54.98,19.62-82.48,5.67-23.93,11.31-47.87,16.92-71.82,2.34-10.01,4.57-20.04,6.92-30.34h182.45c-.16,1.82-.09,3.51-.48,5.09-9.34,36.88-18.7,73.76-28.12,110.62-6.14,24.01-12.42,47.98-18.59,71.99-9.6,37.36-19.14,74.73-28.74,112.08-6.17,24-12.41,47.98-18.58,71.98-9.6,37.35-19.16,74.72-28.76,112.07-6.48,25.18-13.04,50.35-19.5,75.53-9.59,37.36-19.11,74.74-28.69,112.1-6.24,24.34-12.52,48.67-18.8,73.01-4.58,17.74-9.17,35.48-13.77,53.22-.31,1.18-.81,2.31-1.34,3.78h-191.79c1.37-1.21,2.23-2.18,3.27-2.88,11.51-7.71,22.15-16.47,31.85-26.37,12.66-12.93,23.44-27.28,32.56-42.89,12.38-21.18,20.66-43.92,25.36-67.93,1.53-7.83,1.79-15.92,2.59-23.89.36-3.64,1.09-7.31.86-10.92-.96-14.6-1.83-29.2-5.23-43.53-3.69-15.53-8.66-30.61-15.67-44.93-6.7-13.68-14.76-26.54-24.66-38.23-7.27-8.58-15.13-16.46-24.27-23.03-.41-.3-.9-.48-1.81-.96-14.7,11.24-29.49,22.61-44.35,33.89-14.64,11.11-28.98,22.62-43.86,33.4-.26-.25-.52-.5-.77-.75.35-.68.57-1.49,1.06-2.04,3.52-3.89,6.97-7.84,10.66-11.55,12.28-12.32,22.98-25.9,32.08-40.68,8.54-13.87,16.5-28.13,19.43-44.43.92-5.1,1.02-10.47.6-15.64-.5-6.16-5.86-10.69-13.15-11.96-2.13,3.15-4.47,6.39-6.56,9.79-1.54,2.49-3.38,3.19-6.14,2.23-2.21-.77-4.55-1.18-7.52-1.93,1,6.21,2.83,11.26,4.92,16.15,2.04,4.78,1.82,9.13-.75,13.52-6.19,10.58-13.1,20.62-20.96,30.05-6.99,8.38-14.9,15.7-23.55,22.27-1.75,1.33-3.64,2.5-6.1,4.18-1.14-4.26-2.06-7.72-2.82-10.56,3.88-4.7,7.95-8.63,10.83-13.3,9.58-15.49,9.41-31.56.84-47.32-6.12-11.25-15.81-18.6-28.32-21.73-2.87-.72-3.99-2.01-4.65-4.7-4.08-16.79-8.32-33.54-12.51-50.3-.12-.47-.37-.91-.77-1.9-.56,1.12-1.07,1.8-1.24,2.55-3.3,14.27-6.56,28.56-9.84,42.84-.78,3.4-1.79,6.76-2.31,10.19-.44,2.94-2.11,4.37-4.53,5.79-11.41,6.73-18.93,16.57-21.56,29.58-2.27,11.24-1.55,22.57,4.8,32.37,3.45,5.34,3.73,10.07,1.89,15.57-.48,1.44-.85,2.91-1.45,5.02-2.12-1.67-3.81-2.85-5.32-4.22-13.58-12.32-24.95-26.43-33.78-42.52-3.65-6.65-5.2-13.69-2.34-21.18,1.43-3.74,1.13-7.49-.43-11.54-2.43.54-4.72,1.05-7.1,1.58-1.39-2.41-2.46-4.82-4.04-6.82-1.47-1.87-3.32-3.56-5.31-4.87-2.58-1.69-5.29-1.45-7.71.69-4.63,4.11-6.35,8.74-5.52,15.31,1.98,15.55,7.55,29.76,14.46,43.54,7.08,14.1,15.89,27.13,26.15,39.14,5.11,5.97,10.42,11.77,15.6,17.68.73.83,1.26,1.84,1.49,3.18-27.9-19.42-54.97-39.87-82.85-59.95-1.53.9-3.15,1.57-4.41,2.65-23.67,20.26-41.48,44.74-53.09,73.7-5.15,12.86-8.85,26.14-11.3,39.72-2.86,15.89-3.45,32.06-2.15,48.09,2.46,30.31,11.13,58.93,25.74,85.66,11.43,20.91,26.06,39.36,43.9,55.12,7.18,6.35,15.17,11.79,22.8,17.63.78.6,1.59,1.16,3.23,2.35h-205.74c-.7-2.29-1.61-4.86-2.29-7.5-10.01-39.05-19.92-78.13-30.07-117.14-.99-3.82-.49-6.63,1.73-9.73,7.75-10.83,14.57-22.27,20.34-34.25,11.73-24.33,20.46-49.7,25.6-76.28,3.05-15.76,5.64-31.57,6.29-47.64.34-8.37.99-16.74.99-25.12.06-149.96.04-299.93.05-449.89,0-2.28.03-4.56.39-7.34.76-.5,1.18-.5,1.59-.5Z"/>
  <path class="st0" d="M351.94,1519.52c-20.35-.32-40.24-3.91-59.81-9.17-11.93-3.21-23.66-7.19-35.78-10.92,0-58.27,0-115.95.41-174.12.89-.48,1.36-.47,1.84-.46,17.54,7.59,35.68,13.1,54.67,15.61,2.07.27,4.18.23,7.11.57,5.63.73,10.43,1.51,15.16-.21,40.05-1.23,71.34-18.39,93.69-51.67,11.02-16.41,17.94-34.65,23.5-53.47.18-.62.02-1.33.02-2.41-3.2,1.66-6.14,3.12-9.02,4.68-21.03,11.41-43.19,19.56-66.92,23.2-2.58.39-5.19.55-8.68.76-2.79.24-4.69.53-6.59.82,0,0,.02.11-.44.12-7.16.06-13.87.11-20.57.16,0,0,.06-.09-.24-.44-2.62-.43-4.95-.52-7.28-.6-13-.46-25.49-3.6-37.67-7.82-22.96-7.95-42.73-20.97-59.49-38.54-.36-.37-.61-.84-.66-1.61,64.62-17.76,109.41-57.67,135.79-118.57,7.19-16.6,11.17-34.14,13.92-51.98,2.11,3.36,3.86,7.02,6.39,10.03,5.62,6.71,13.13,10.06,22.56,11.16,4.54.1,8.31-.09,12.08-.29,13.27-1.01,21.91-8.39,26.93-20.21,2.94-6.93,4.63-14.27,4.76-22.52.46-.92.5-1.25.32-1.6.07-2.27.2-4.54.2-6.81.02-93.74.03-187.48.61-281.72,65.35-.5,130.14-.51,194.93-.5,1.74,0,3.49.18,5.23.28,0,164.2.01,328.39-.19,493.23-.25.97-.29,1.3-.33,1.63-.6,23.09-3.55,45.9-8.68,68.41-7.52,32.99-19.83,64.02-38.29,92.49-9.25,14.27-19.78,27.47-31.43,39.88-28.86,30.74-62.15,55.12-101.03,71.65-19.86,8.44-40.49,14.25-61.79,17.69-11.03,1.78-22.09,3.3-34.27,3.26-10.97-.03-20.97,0-30.96.01Z"/>
  <path class="st2" d="M384.88,1043c-2.71,18.29-6.69,35.83-13.88,52.44-26.39,60.9-71.17,100.81-135.95,118.28-4.5-4.68-9.08-9.08-12.58-14.22-10.37-15.24-18.79-31.56-24.65-49.06-4.44-13.25-7.29-26.92-9.52-40.71-.28-1.71-.19-3.49-.19-5.24,0-124.51,0-249.02.54-374.03,64.24-.51,127.96-.51,191.68-.52.53,0,1.07.08,1.57-.01,2.56-.48,3.85.91,4.67,3.05.07,2.27.19,4.54.19,6.82,0,93.11.05,186.23-.08,279.34-.01,7.8-1.2,15.6-1.81,23.86Z"/>
  <path class="st27" d="M968.17,1257.77c16.28-2.38,29.1-11.37,41.17-21.71,15.74-13.49,27.66-30.04,38-47.82,2.78-4.79,3.37-9.79,1.06-15.03-1.33-3.02-2.35-6.17-3.81-10.08,3.08.42,5.49.76,8.06,1.11,2.95-4.27,5.82-8.42,8.63-12.49,6.23,1.99,8.5,4.87,8.65,11.59.18,7.76-1.33,15.33-4.1,22.55-6.03,15.77-14.21,30.4-24.08,44.09-10.05,13.95-21.53,26.65-33.84,38.63-5.91,5.75-11.45,11.78-15.65,18.95-7.98,13.61-10.88,28.09-8.65,43.8,1.98,14,7.12,26.99,11.73,40.16,1.96,5.58,4.3,11.03,6.65,17.01-12.65,10.68-25.42,21.46-38.41,32.42-13.73-10.04-27.24-19.92-41.12-30.07,2.22-6.22,4.4-12.27,6.54-18.33,4.24-12.03,8.83-23.95,10.97-36.6,3.39-19.99-.38-38.27-13.22-54.26-4.15-5.17-8.57-10.17-13.25-14.86-15.75-15.8-30.02-32.76-41.13-52.18-8.65-15.1-15.63-30.88-18.2-48.28-.43-2.9-.64-5.94-.27-8.82.39-3.08,2.19-5.59,5.57-6.2,3.14-.56,4.92,1.71,6.32,3.87,1.78,2.77,3.07,5.85,4.7,9.04,1.98-.33,3.82-.64,6.32-1.07-.18,2.52.17,5.05-.61,7.16-2.65,7.19-1.14,13.92,2.2,20.21,12.07,22.76,28.03,42.19,49.74,56.5,7.83,5.16,16.33,8.71,26.28,10.82,5.09.77,9.49,1.65,13.78-.11Z"/>
  <path class="st27" d="M919.1,1199.77c-.04-3.18-.09-6.35.19-10.14.5-.9.53-1.21.4-1.53.93-13.44,12.14-28.64,28.9-33.33,1.66-.47,3.37-.78,5.95-1.2,5.14-.08,9.4-.12,13.66-.16,10.71,1.83,19.77,6.56,26.76,15.04,4.43,5.38,7.17,11.56,8.63,18.29,2.52,11.63.72,22.61-6.09,32.42-8.16,11.77-19.49,18.11-33.96,18.66-15.34.59-27.52-5.44-36.58-17.64-3.98-5.36-6.71-11.43-7.3-18.92-.04-1.04-.23-1.31-.56-1.48Z"/>
  <path class="st19" d="M786.01,1338.83c18.63,6.74,36.95,13.14,55.11,19.96,29.72,11.17,58.4,24.49,84.53,42.78,9.88,6.91,20.18,13.3,28.57,22.14,1.07,1.13,2.09,2.3,3.39,3.74-5.69,8.55-11.28,16.95-17.19,25.83-2.66-3.55-5-6.56-7.22-9.65-15.48-21.57-35.42-38.17-58.33-51.12-22.83-12.91-46.11-25.01-69.15-37.54-8.75-4.76-17.4-9.73-26.07-14.64-.56-.31-.96-.89-1.46-1.36,2.54-2.71,5.01-.83,7.83-.13Z"/>
  <path class="st26" d="M1039.48,1350.07c-16.03,7.61-30.56,5.31-44.2-4.88-.55-.41-1.31-.55-1.98-.82.28-.48.56-.96.84-1.44,4.16.48,8.33.86,12.47,1.48,8.84,1.31,17.23.48,24.08-5.83,2.66-2.44,4.75-5.58,6.8-8.6,7.04-10.32,16.6-15.89,29.2-15.4,6.57.25,12.69,2.17,17.66,6.91,5.45,5.21,6.41,11.59,5.55,19.64-3.98-2.89-7.29-5.28-10.6-7.68l-.85.46c2.2,5.31,4.4,10.61,6.82,16.47-10.93,5.36-22.15,9.52-33.65,14.47-1.9-6.1-3.68-11.85-5.63-18.09-2.26,1.15-4.21,2.14-6.52,3.29Z"/>
  <path class="st16" d="M1094.33,1282.69c14.76,1.45,22.26,11.4,23.3,23.41.15,1.73.48,3.44.65,5.17.04.42-.21.88-.56,2.19-4-5.08-7.59-9.64-11.18-14.19.36,16.53,9.13,28.37,20.81,38.58-3.57,3.57-7.92,4.06-12.09,1.19-2-1.38-3.7-3.2-5.6-4.73-1.6-1.29-3.19-2.92-5.67-1.35.74,2.31,1.48,4.62,2.23,6.92,1.85,5.67,1.35,6.5-5.19,8.17-5.06-7.76-8.09-16.4-9.91-25.52-.68-3.42-1.22-6.87-1.97-10.28-2.56-11.63-8.68-20.39-19.92-25.29-9.95-4.33-16.03-12.12-18.84-22.53-.18-.65-.13-1.36-.3-3.32,2.73,2.46,4.86,4.07,6.62,6.03,7.54,8.39,16.7,13.63,28.78,15.13,3.45.34,6.14.37,8.83.4Z"/>
  <path class="st23" d="M1042.89,1286.62c6.67,2.13,10.49,6.31,11.26,12.87.74,6.38-1.15,11.78-6.9,15.29-6.86,4.18-16.68,2.1-21.08-4.38-4.59-6.76-2.84-16.88,3.83-21.57,3.77-2.65,8.04-3.19,12.9-2.21Z"/>
  <path class="st26" d="M882.78,1324c-7.63-2.34-11.31-9.08-9.12-16.69,1.83-6.36,9.71-10.61,16.35-8.53,4.65,1.46,7.7,4.93,8.66,9.64,1.01,4.96.28,9.77-3.93,13.32-1.04.87-2.37,1.4-4.42,2.08-3.08.06-5.32.12-7.55.18Z"/>
  <path class="st31" d="M835.03,1271.25c-4.93,6.95-11.81,7.24-15.92,1.03-2.05-3.1-2.06-7.06-.03-9.84,2.42-3.3,6.9-4.78,10.77-3.56,3.23,1.01,5.85,4.36,5.95,7.87.04,1.37-.37,2.76-.78,4.5Z"/>
  <path class="st31" d="M1081.5,1278.76c-5.7-3.92-6.72-9.6-2.52-13.99,3.15-3.29,7.17-3.71,10.82-1.15,3.35,2.36,4.72,7.07,2.77,10.64-.88,1.6-2.47,2.82-4.55,4.31-2.71.13-4.61.15-6.51.18Z"/>
  <path class="st28" d="M386.64,732.55c-.89-1.72-2.18-3.12-4.74-2.64-.51.1-1.05.01-1.57.01-63.72,0-127.44,0-191.65.03-.51-.17-.52-.35-.25-.82.29-.29.78-.47.78-.47.87.05,1.74.14,2.61.14,63.98,0,127.96-.02,192.69-.04.91-.08,1.07-.14,1.24-.2,0,0,.4.11.59.16.25,1.17.31,2.29.3,3.83Z"/>
  <path class="st25" d="M658.71,730.88c-1.54.29-3.28.11-5.03.11-64.79-.01-129.57,0-194.85.01,1.48-.35,3.45-1.03,5.43-1.03,62.86-.06,125.72-.05,188.59-.02,1.89,0,3.77.35,5.87.93Z"/>
  <path class="st30" d="M387.35,697.37c1.48-.35,3.45-1.03,5.42-1.03,44.63-.06,89.26-.05,134.38-.06-1.27.35-3.04,1.01-4.8,1.02-20.14.07-40.29.05-60.43.05-24.7,0-49.39,0-74.58.02Z"/>
  <path class="st30" d="M47.78,697.23c-.49-.07-.53-.52-.49-.74,44.74-.21,89.43-.21,134.11-.17,2.06,0,4.11.35,6.37.93-2.07.29-4.34.11-6.61.11-44.3-.03-88.6-.04-133.39-.13Z"/>
  <path class="st15" d="M352.29,1519.81c9.65-.32,19.64-.34,30.14-.28-.1.33-.72.83-1.33.83-9.49-.04-18.98-.15-28.82-.54Z"/>
  <path class="st13" d="M340.87,1263.3c6.37-.34,13.07-.39,20.27-.4-.1.35-.7.93-1.29.93-6.22-.03-12.43-.15-18.98-.53Z"/>
  <path class="st25" d="M1568.09,718c-6.39.31-13.1.32-20.3.27.29-.35,1.07-.91,1.85-.9,6.04.05,12.08.21,18.45.63Z"/>
  <path class="st15" d="M1565.69,1545.63c.95-.37,2.38-.93,3.82-.97,4.26-.12,8.52-.03,13.28.04-1.28.36-3.06.86-4.86.93-3.91.14-7.84.05-12.25.01Z"/>
  <path class="st15" d="M1538.03,1545.04c5.12-.24,10.59-.18,16.39.17-5.13.23-10.59.18-16.39-.17Z"/>
  <path class="st5" d="M921.59,1350.85c-4.45.22-9.19.12-14.28-.28,4.43-.21,9.21-.13,14.28.28Z"/>
  <path class="st5" d="M335.04,1340.76c-4.22,1.78-9.03.99-14.19.24,4.32-.27,9-.28,14.19-.24Z"/>
  <path class="st9" d="M1583.27,719.27c-4.76-.06-9.51-.13-14.6-.48,4.24-.32,8.81-.36,13.93-.17.55.24.67.65.67.65Z"/>
  <path class="st9" d="M967.68,1257.72c-3.81,1.81-8.2.94-12.9.27,3.93-.31,8.17-.31,12.9-.27Z"/>
  <path class="st9" d="M1546.89,718.39c-1.95.37-4.38.8-6.82,1-1.84.15-3.71,0-6-.28-.43-.25-.3-.66-.3-.66,4.21-.03,8.42-.06,13.12-.06Z"/>
  <path class="st25" d="M967.86,1153.12c-3.93.32-8.19.36-12.93.34,3.88-.25,8.24-.44,12.93-.34Z"/>
  <path class="st5" d="M425.45,1064.3c-3.27.25-7.05.45-11.15.35,3.33-.33,6.99-.37,11.15-.35Z"/>
  <path class="st22" d="M966.74,1515.15c-.1,1.79-.49,3.58-.89,5.37-.27-.05-.53-.09-.8-.14,0-1.5,0-3.01.11-4.91.5-.37.89-.34,1.58-.32Z"/>
  <path class="st5" d="M832.26,1278.74c-2.26.27-5.02.49-8.1.43,2.32-.35,4.96-.42,8.1-.43Z"/>
  <path class="st25" d="M1094.01,1282.41c-2.37.25-5.06.22-8.09-.1,2.36-.25,5.06-.22,8.09.1Z"/>
  <path class="st18" d="M869.07,1321.31c-2.21.33-4.72.39-7.7.4,2.15-.25,4.78-.46,7.7-.4Z"/>
  <path class="st5" d="M1583.72,719.32c-.45-.05-.58-.46-.64-.67,2.57-.12,5.2-.03,8.15.33-2.14.31-4.6.35-7.51.33Z"/>
  <path class="st5" d="M1533.32,718.42c.45.03.32.44.26.65-2.51.25-4.97.29-7.88.27,2.08-.36,4.62-.65,7.62-.92Z"/>
  <path class="st15" d="M333.34,1262.26c2.01-.2,4.34-.12,6.97.26-2.01.2-4.33.11-6.97-.26Z"/>
  <path class="st20" d="M1157.57,1346.29c.33,1.85.53,4.13.61,6.85-.33-1.84-.53-4.13-.61-6.85Z"/>
  <path class="st15" d="M883.09,1324.28c1.93-.34,4.17-.4,6.88-.42-1.87.26-4.22.48-6.88.42Z"/>
  <path class="st8" d="M668.49,756.93c-.41.35-.83.35-1.55.37-.31-1.11-.31-2.24-.31-4.5.93,1.9,1.4,2.84,1.86,4.13Z"/>
  <path class="st20" d="M1165.54,1350.85c-.37-1.48-.61-3.36-.77-5.67.35,1.47.62,3.36.77,5.67Z"/>
  <path class="st15" d="M1081.78,1279.05c1.62-.32,3.52-.34,5.9-.33-1.56.23-3.59.43-5.9.33Z"/>
  <path class="st15" d="M361.98,1262.79c1.47-.35,3.37-.64,5.71-.87-1.47.35-3.37.64-5.71.87Z"/>
  <path class="st20" d="M1157.97,1368.15c.24,1.3.23,2.92-.02,4.86-.23-1.3-.24-2.92.02-4.86Z"/>
  <path class="st20" d="M1165.31,1371.1c-.27-1.3-.31-2.95-.13-4.93.27,1.3.31,2.94.13,4.93Z"/>
  <path class="st14" d="M258.44,1324.61c-.32.23-.79.23-1.62.2.25-.16.86-.3,1.62-.2Z"/>
  <path class="st2" d="M911.41,1270.21c-.44-.08-.87-.17-1.31-.25.08-.2.15-.39.23-.59.27.13.53.26.93.62.13.24.15.21.15.21Z"/>
  <path class="st14" d="M457.76,1020.19c.38.19.34.52-.13.98-.32-.19-.27-.52.13-.98Z"/>
  <path class="st4" d="M189.09,728.48c.12.19-.37.36-.63.39-.3-.15-.34-.33-.31-.77.37-.19.62-.03.94.39Z"/>
  <path class="st22" d="M929.11,1511.97c-.24-.01-.46-.28-.62-.8.38-.08.58.18.62.8Z"/>
  <path class="st22" d="M965.66,1507.71c-.31-.17-.27-.47.1-.92.3.16.28.47-.1.92Z"/>
  <path class="st22" d="M928.87,1499.3c-.31-.17-.27-.47.1-.92.3.16.28.47-.1.92Z"/>
  <path class="st29" d="M757.16,1364.02c.37-.08.57.19.61.8-.24-.01-.45-.28-.61-.8Z"/>
  <path class="st29" d="M757.53,1349.01c.32.2.26.52-.14.99-.15-.17-.11-.5.14-.99Z"/>
  <path class="st29" d="M919.52,1188.27c.29.15.26.46-.1.91-.29-.16-.26-.46.1-.91Z"/>
  <path class="st29" d="M919.05,1200.03c.38-.08.57.18.61.8-.24-.01-.45-.28-.61-.8Z"/>
  <path class="st14" d="M658.59,1225.96c-.15-.17-.12-.5.14-.99.32.2.27.52-.14.99Z"/>
  <path class="st2" d="M1004.98,1277.64c-.15.2-.29.41-.44.62-.01-.2-.02-.39.18-.62.21-.03.26,0,.26,0Z"/>
  <path class="st2" d="M1004.92,1277.58c.15-.32.32-.63.78-.98.29-.05.37.03.37.03-.19.29-.38.58-.84.94-.26.07-.3.03-.32,0Z"/>
  <path class="st3" d="M1007.26,1275.7c-.23.26-.45.52-.93.86-.25.08-.33,0-.37-.04.02-.4.19-.7.8-.96.32-.03.5.15.5.15Z"/>
  <path class="st3" d="M1006.99,1275.43c.11-.27.32-.46.52-.64.03.22.07.44-.07.79-.18.12-.36-.06-.45-.15Z"/>
  <path class="st3" d="M911.37,1270.25c.13.07.27.13.41.19-.1.04-.21.09-.34-.05-.03-.18-.05-.15-.07-.14Z"/>
  <path class="st25" d="M1554.84,1358.98c6.09-.35,12.53-.41,19.47-.41-.64.38-1.79.98-2.93.98-5.4,0-10.79-.16-16.54-.56Z"/>
  <path class="st21" d="M1572.29,900.83c-4.27.34-8.87.4-13.96.41,4.14-1.94,8.91-.88,13.96-.41Z"/>
  <path class="st21" d="M1779.5,1046.49c-2.48.35-5.43.63-8.85.86,2.48-.34,5.43-.64,8.85-.86Z"/>
  <path class="st25" d="M1839.7,1237.04c2.69-.21,5.72-.12,9.05.25-2.7.21-5.71.12-9.05-.25Z"/>
  <path class="st21" d="M1874.1,1041.24c-2.48.35-5.43.63-8.85.86,2.48-.34,5.43-.64,8.85-.86Z"/>
  <path class="st21" d="M1855.18,1042.29c-2.48.35-5.43.63-8.85.86,2.48-.34,5.43-.64,8.85-.86Z"/>
  <path class="st21" d="M1836.26,1043.34c-2.48.35-5.43.63-8.85.86,2.48-.34,5.43-.64,8.85-.86Z"/>
  <path class="st21" d="M1817.34,1044.39c-2.48.35-5.43.63-8.85.86,2.48-.34,5.43-.64,8.85-.86Z"/>
  <path class="st21" d="M1798.42,1045.44c-2.48.35-5.43.63-8.85.86,2.48-.34,5.43-.64,8.85-.86Z"/>
  <path class="st21" d="M1760.58,1047.54c-2.48.35-5.43.63-8.85.86,2.48-.34,5.43-.64,8.85-.86Z"/>
  <path class="st21" d="M1741.65,1048.59c-2.48.35-5.43.63-8.85.86,2.48-.34,5.43-.64,8.85-.86Z"/>
  <path class="st21" d="M1722.73,1049.65c-2.48.35-5.43.63-8.85.86,2.48-.34,5.43-.64,8.85-.86Z"/>
  <path class="st21" d="M1703.81,1050.7c-2.48.35-5.43.63-8.85.86,2.48-.34,5.43-.64,8.85-.86Z"/>
  <path class="st30" d="M1684.89,1051.75c-2.48.33-5.44.59-8.87.8,2.49-.33,5.44-.6,8.87-.8Z"/>
  <path class="st18" d="M1857.47,1238.17c2.37-.23,5.08-.18,8.1.17-2.38.23-5.07.18-8.1-.17Z"/>
  <path class="st18" d="M1874.29,1239.22c2.37-.23,5.08-.18,8.1.17-2.38.23-5.07.18-8.1-.17Z"/>
  <path class="st5" d="M1704.1,1228.63c2.35-.23,5.02-.17,8.02.18-2.35.23-5.02.17-8.02-.18Z"/>
  <path class="st5" d="M1822.88,1235.99c2.35-.23,5.02-.17,8.02.18-2.35.23-5.02.17-8.02-.18Z"/>
  <path class="st25" d="M1670.83,1227.17c1.97-1.99,4.7-.97,7.66-.46-2.19.33-4.69.39-7.66.46Z"/>
  <path class="st5" d="M1687.28,1227.58c2.35-.23,5.02-.17,8.02.18-2.35.23-5.02.17-8.02-.18Z"/>
  <path class="st5" d="M1720.91,1229.69c2.35-.23,5.02-.17,8.02.18-2.35.23-5.02.17-8.02-.18Z"/>
  <path class="st18" d="M1738.69,1230.81c2.37-.23,5.08-.18,8.1.17-2.38.23-5.07.18-8.1-.17Z"/>
  <path class="st18" d="M1755.51,1231.86c2.37-.23,5.08-.18,8.1.17-2.38.23-5.07.18-8.1-.17Z"/>
  <path class="st18" d="M1772.33,1232.91c2.37-.23,5.08-.18,8.1.17-2.38.23-5.07.18-8.1-.17Z"/>
  <path class="st25" d="M1789.15,1233.97c2.37-.25,5.07-.22,8.1.09-2.37.25-5.07.22-8.1-.09Z"/>
  <path class="st5" d="M1806.06,1234.94c2.35-.23,5.02-.17,8.02.18-2.35.23-5.02.17-8.02-.18Z"/>
  <path class="st29" d="M1666.02,1052.59c-.09.15-.33.21-.53.1.04-.17.38-.18.53-.1Z"/>
  <path class="st14" d="M1454.48,1087.27c.32.2.26.52-.14.99-.15-.17-.12-.5.14-.99Z"/>
  <path class="st14" d="M1453.43,1113.55c.32.2.27.52-.14.99-.15-.17-.12-.5.14-.99Z"/>
  <path class="st14" d="M1453.06,1156.93c.38-.08.57.18.61.79-.37.09-.58-.17-.61-.79Z"/>
  <path class="st4" d="M385.64,728.44c-.06.19-.22.26-.64.27-.09-.42.18-.54.64-.27Z"/>
</svg>